PathFileType	4	(X/Y/Z)	C:\Users\°ÂÌØÂü\Desktop\20201223\Trimmed_bx_n_0_901.trc
DataRate	CameraRate	NumFrames	NumMarkers	Units	OrigDataRate	OrigDataStartFrame	OrigNumFrames
50.00	50.00	       5	43	mm	50.00	123	       978
Frame#	Time	Top.Head			R.Acromium			L.Acromium			Sternum			R.ASIS			L.ASIS			V.Sacral			R.Thigh.Upper			R.Thigh.Front			R.Thigh.Rear			R.Knee.Lat			R.Knee.Med			R.Shank.Upper			R.Shank.Front			R.Shank.Rear			R.Ankle.Lat			R.Midfoot.Lat			R.Toe.Lat			R.Toe.Tip			R.Toe.Med			R.Ankle.Med			R.Midfoot.Sup			R.Heel			L.Thigh.Upper			L.Thigh.Front			L.Thigh.Rear			L.Knee.Lat			L.Knee.Med			L.Shank.Upper			L.Shank.Front			L.Shank.Rear			L.Ankle.Lat			L.Midfoot.Lat			L.Toe.Lat			L.Toe.Tip			L.Toe.Med			L.Ankle.Med			L.Midfoot.Sup			L.Heel			origin1 front left			origin2 front right			origin 3 back right			origin 4 back leftt			
		X1	Y1	Z1	X2	Y2	Z2	X3	Y3	Z3	X4	Y4	Z4	X5	Y5	Z5	X6	Y6	Z6	X7	Y7	Z7	X8	Y8	Z8	X9	Y9	Z9	X10	Y10	Z10	X11	Y11	Z11	X12	Y12	Z12	X13	Y13	Z13	X14	Y14	Z14	X15	Y15	Z15	X16	Y16	Z16	X17	Y17	Z17	X18	Y18	Z18	X19	Y19	Z19	X20	Y20	Z20	X21	Y21	Z21	X22	Y22	Z22	X23	Y23	Z23	X24	Y24	Z24	X25	Y25	Z25	X26	Y26	Z26	X27	Y27	Z27	X28	Y28	Z28	X29	Y29	Z29	X30	Y30	Z30	X31	Y31	Z31	X32	Y32	Z32	X33	Y33	Z33	X34	Y34	Z34	X35	Y35	Z35	X36	Y36	Z36	X37	Y37	Z37	X38	Y38	Z38	X39	Y39	Z39	X40	Y40	Z40	X41	Y41	Z41	X42	Y42	Z42	X43	Y43	Z43	

123	2.440	-134.64359	224.18436	1476.04761	-353.75012	46.01225	1280.12598	-335.86694	398.37253	1284.32141	-438.69843	225.49428	1130.92847	-696.40094	128.14481	986.50409	-655.40991	347.78519	977.06818	-845.10516	259.99713	1094.49658	-784.05762	81.59025	823.52203	-685.12982	128.25488	798.33185	-775.80219	96.82445	708.04626	-759.83801	116.97706	592.65778	-726.76123	223.35716	552.78766	-771.55457	116.22050	526.61798	-692.22595	167.07669	527.65552	-768.13110	107.37217	474.41098	-698.55719	134.60335	210.06096	-617.46271	76.60641	165.11237	-571.05597	55.46680	163.14224	-495.55197	98.61682	160.55692	-537.32452	149.16716	163.19745	-651.45575	211.07733	224.66866	-600.83643	186.45599	173.97676	-728.48846	201.70708	168.37129	-744.03473	447.87103	850.43878	-662.92029	381.49164	812.41278	-744.61755	442.69681	731.71674	-737.32910	420.00110	595.42004	-728.88409	310.46909	559.27960	-744.99677	424.85919	549.34442	-686.98547	365.01495	533.55383	-783.26337	433.39581	476.69772	-681.92084	425.06750	213.31529	-579.01239	465.67007	164.63754	-540.38220	475.07846	159.04570	-485.93292	417.75482	167.27383	-526.63403	382.23318	176.21635	-654.27600	332.10400	210.43477	-598.38214	348.11368	171.51895	-735.71497	356.78506	161.81317	-444.05353	448.41974	146.39915	-450.44107	74.97051	143.32753	-806.80890	82.72562	141.21379	-799.81622	456.77914	145.03662	
124	2.460	-129.98029	224.32462	1467.73352	-351.50055	45.97568	1274.62585	-334.08392	398.12231	1278.75623	-437.57327	225.07059	1128.03040	-697.19086	127.95634	985.37292	-656.63055	347.79688	976.09338	-845.47211	259.73096	1094.52832	-784.87494	81.39730	823.32544	-685.87256	128.11766	798.19464	-776.56030	96.60404	707.90283	-760.33038	116.83356	592.62665	-727.29376	223.33185	552.66833	-771.92462	116.21980	526.47241	-692.71521	167.03230	527.53833	-768.50812	107.28707	474.31311	-698.56366	134.58752	210.07516	-617.45819	76.62095	165.08923	-571.06665	55.48499	163.09787	-495.56000	98.68563	160.55719	-537.33508	149.20667	163.18401	-651.54492	211.04495	224.72186	-600.85260	186.46468	173.96718	-728.49255	201.67484	168.40884	-744.80438	447.63058	850.28937	-663.67340	381.26709	812.31653	-745.32959	442.48343	731.58539	-737.79675	419.85477	595.29614	-729.44611	310.45816	559.16876	-745.39380	424.75684	549.27448	-687.41150	364.85645	533.50842	-783.57489	433.44531	476.57275	-681.88013	425.02499	213.30551	-579.00580	465.64038	164.66743	-540.36859	475.05682	159.08026	-485.90598	417.63556	167.22372	-526.60657	382.17340	176.19235	-654.28796	332.06738	210.45303	-598.37262	348.09192	171.51276	-735.69293	356.82147	161.81580	-444.04346	448.39575	146.41924	-450.44357	74.96986	143.33113	-806.83453	82.75260	141.23859	-799.81183	456.77805	145.01395	
125	2.480	-125.43137	224.43387	1459.45972	-349.28064	45.89684	1269.25891	-332.46033	397.74969	1273.13049	-436.49408	224.65417	1125.14453	-697.86035	127.87847	983.98267	-657.83655	347.81284	975.11847	-845.85034	259.42807	1094.57764	-785.62872	81.19961	823.15027	-686.56897	127.98468	798.05096	-777.27161	96.35577	707.73383	-760.79492	116.68905	592.57428	-727.83130	223.27814	552.55066	-772.26294	116.18515	526.37067	-693.21216	166.94386	527.39642	-768.89026	107.11732	474.26865	-698.55908	134.57423	210.08914	-617.44128	76.63581	165.06012	-571.07251	55.49205	163.06995	-495.55594	98.76130	160.55611	-537.33826	149.24486	163.17191	-651.64136	211.00731	224.77917	-600.87494	186.45918	173.94810	-728.50500	201.63898	168.46347	-745.43848	447.40247	850.15985	-664.29321	380.97348	812.23895	-745.90649	442.33127	731.50616	-738.19568	419.71478	595.20239	-729.91553	310.40097	559.10944	-745.69287	424.58328	549.18567	-687.73822	364.63528	533.56445	-783.84332	433.43991	476.47644	-681.84314	424.99265	213.30605	-578.98486	465.58047	164.71364	-540.33942	475.01233	159.13672	-485.85242	417.48987	167.16379	-526.55493	382.09161	176.16422	-654.29218	332.00052	210.48622	-598.32312	348.00131	171.52531	-735.63837	356.80283	161.89645	-444.03854	448.37082	146.44801	-450.43747	74.96542	143.34061	-806.84442	82.76792	141.24077	-799.82007	456.75949	144.98497	
126	2.500	-121.03970	224.54367	1451.23877	-347.09708	45.80000	1263.98499	-330.96957	397.28784	1267.46680	-435.46011	224.24506	1122.27234	-698.42419	127.93138	982.35596	-659.02728	347.83224	974.14471	-846.27197	259.08673	1094.64404	-786.34534	80.99973	823.00128	-687.24567	127.85080	797.91223	-777.92957	96.12266	707.54852	-761.22571	116.56731	592.47711	-728.36017	223.21666	552.43994	-772.59192	116.09153	526.32599	-693.68646	166.83792	527.28583	-769.26135	106.88220	474.25531	-698.54871	134.56123	210.09695	-617.40576	76.64633	165.03783	-571.06335	55.47914	163.07066	-495.54358	98.83451	160.55446	-537.33136	149.28275	163.15251	-651.73431	210.97307	224.83795	-600.89600	186.45280	173.93561	-728.52130	201.60867	168.51987	-745.97949	447.18210	850.06738	-664.81042	380.61499	812.18158	-746.35095	442.22958	731.48029	-738.53638	419.60574	595.14764	-730.31165	310.27316	559.11426	-745.93347	424.38129	549.09058	-688.00623	364.41818	533.68207	-784.06207	433.38977	476.39969	-681.81073	424.97595	213.32062	-578.94769	465.47974	164.76384	-540.29901	474.94852	159.21077	-485.79242	417.35385	167.09546	-526.49701	382.00299	176.13956	-654.30145	331.92554	210.51106	-598.24426	347.85547	171.55270	-735.58167	356.76221	162.02328	-444.02838	448.35199	146.47293	-450.42456	74.96019	143.35159	-806.84583	82.76859	141.22408	-799.83484	456.73499	144.96396	
127	2.520	-116.85162	224.68784	1443.07983	-344.96094	45.70974	1258.73230	-329.56516	396.82230	1261.82947	-434.47073	223.84326	1119.41467	-698.91852	128.09650	980.56860	-660.20374	347.85373	973.17401	-846.75342	258.71780	1094.71411	-787.05255	80.80582	822.87201	-687.92047	127.71603	797.78784	-778.53583	95.92564	707.36670	-761.62927	116.47655	592.33575	-728.86072	223.18040	552.34308	-772.94086	115.94249	526.31244	-694.11096	166.74356	527.24121	-769.59888	106.63355	474.24005	-698.53473	134.55081	210.09480	-617.35309	76.65604	165.02596	-571.03619	55.44868	163.09619	-495.53012	98.89971	160.54922	-537.31647	149.32231	163.11974	-651.80542	210.95270	224.89624	-600.90753	186.45297	173.93985	-728.53351	201.58958	168.56334	-746.48462	446.95401	850.01489	-665.27606	380.22104	812.13995	-746.70306	442.13596	731.48883	-738.82843	419.53732	595.12933	-730.68341	310.09497	559.14703	-746.16431	424.20273	548.99164	-688.26111	364.25159	533.79706	-784.22534	433.32388	476.33508	-681.78345	424.97794	213.34834	-578.89313	465.33905	164.80302	-540.25745	474.87759	159.28947	-485.74438	417.26035	167.02599	-526.44922	381.91940	176.12509	-654.32404	331.86462	210.51047	-598.16071	347.69492	171.58572	-735.56067	356.74017	162.14420	-444.00424	448.34299	146.48055	-450.40918	74.95876	143.35518	-806.84277	82.75733	141.20041	-799.85065	456.71603	144.95839	
